<svg width="48" height="48" viewBox="0 0 48 48" fill="none" xmlns="http://www.w3.org/2000/svg">
<path d="M5 17.8V24.9097C5 29.3901 5 31.6303 5.87195 33.3416C6.63893 34.8469 7.86278 36.0707 9.36808 36.8377C11.0794 37.7097 13.3196 37.7097 17.8 37.7097H18.3945C19.053 37.7097 19.3823 37.7097 19.6783 37.8039C19.9403 37.8873 20.1822 38.0238 20.3891 38.205C20.6228 38.4096 20.7931 38.6914 21.1336 39.255L22.7336 41.9037C23.1559 42.6028 23.3671 42.9523 23.6457 43.0808C23.8891 43.1931 24.1674 43.2029 24.4182 43.108C24.7051 42.9995 24.9404 42.6657 25.4109 41.9981L27.4773 39.0662L27.4773 39.0662C27.8273 38.5696 28.0023 38.3212 28.2289 38.1418C28.4296 37.9829 28.6588 37.864 28.9043 37.7915C29.1815 37.7097 29.4894 37.7097 30.1052 37.7097C34.6488 37.7097 36.9206 37.7097 38.6319 36.8377C40.1372 36.0707 41.3611 34.8469 42.1281 33.3416C43 31.6303 43 29.3901 43 24.9097V17.8C43 13.3196 43 11.0794 42.1281 9.36808C41.3611 7.86278 40.1372 6.63893 38.6319 5.87195C36.9206 5 34.6804 5 30.2 5H17.8C13.3196 5 11.0794 5 9.36808 5.87195C7.86278 6.63893 6.63893 7.86278 5.87195 9.36808C5 11.0794 5 13.3196 5 17.8Z" stroke="black" stroke-width="4"/>
<path d="M15 18H33M15 25H24" stroke="black" stroke-width="4" stroke-linecap="round" stroke-linejoin="round"/>
</svg>
