<svg width="24" height="24" viewBox="0 0 24 24" fill="none" xmlns="http://www.w3.org/2000/svg">
<path d="M20 4.35294H19.5069M3 4.35294H3.49307M8.46429 4.35294L8.76172 3.20024C8.87252 2.77084 8.92792 2.55614 9.04886 2.3964C9.15557 2.25544 9.29775 2.1453 9.4609 2.07719C9.64579 2 9.86752 2 10.311 2H12.7037C13.1423 2 13.3616 2 13.5451 2.07587C13.707 2.14282 13.8485 2.25115 13.9554 2.39001C14.0765 2.54736 14.1338 2.75906 14.2482 3.18247L14.5357 4.24598M7.49654 9V17.4545M15.5035 9V17.4545M11.5 9V17.4545M19.5069 4.35294L18.9112 18.9307C18.8671 20.0092 18.845 20.5485 18.6211 20.9586C18.424 21.3195 18.1205 21.6108 17.7519 21.793C17.333 22 16.7933 22 15.7138 22H7.28617C6.20673 22 5.667 22 5.24814 21.793C4.8795 21.6108 4.57597 21.3194 4.37889 20.9586C4.15496 20.5485 4.13293 20.0092 4.08885 18.9307L3.49307 4.35294M19.5069 4.35294H3.49307" stroke="black" stroke-width="2" stroke-linecap="round" stroke-linejoin="round"/>
</svg>
