<svg width="48" height="48" viewBox="0 0 48 48" fill="none" xmlns="http://www.w3.org/2000/svg">
<path d="M18 27.492C18.3682 28.0823 18.8052 28.641 19.3109 29.1562C22.4504 32.3551 27.2357 32.8553 30.8898 30.6565C31.5668 30.249 32.2048 29.7491 32.7867 29.1562L41.2092 20.5745C44.9303 16.7829 44.9303 10.6354 41.2092 6.84374C37.4878 3.05208 31.4545 3.0521 27.7331 6.84374L25.878 8.73399" stroke="black" stroke-width="4" stroke-linecap="round"/>
<path d="M22.1228 39.2655L20.2669 41.1562C16.5457 44.9479 10.5123 44.9479 6.79098 41.1562C3.06967 37.3645 3.06967 31.2172 6.79098 27.4255L15.2135 18.8438C18.9347 15.0521 24.9682 15.0521 28.6893 18.8438C29.195 19.3587 29.6318 19.9174 30 20.5075" stroke="black" stroke-width="4" stroke-linecap="round"/>
</svg>
