<svg width="48" height="48" viewBox="0 0 48 48" fill="none" xmlns="http://www.w3.org/2000/svg">
<path d="M22 17H21V9.3927C21 8.62352 20.3764 8 19.6073 8C19.22 8 18.8503 8.16124 18.5868 8.44504L6.68046 21.2672C6.24308 21.7382 6 22.3572 6 23C6 23.6428 6.24308 24.2618 6.68046 24.7328L18.5868 37.555C18.8503 37.8388 19.22 38 19.6073 38C20.3764 38 21 37.3764 21 36.6074V29C32.1088 29 38.1062 37.0324 39.616 39.3694C39.8652 39.7552 40.2858 40 40.745 40C41.4382 40 42 39.4382 42 38.745V37C42 25.9544 33.0456 17 22 17Z" stroke="#3A3A3A" stroke-width="4" stroke-linejoin="round"/>
</svg>
