<svg width="24" height="24" viewBox="0 0 24 24" fill="none" xmlns="http://www.w3.org/2000/svg">
<path d="M15 17H17C18.3261 17 19.5979 16.4732 20.5355 15.5355C21.4732 14.5979 22 13.3261 22 12C22 10.6739 21.4732 9.40215 20.5355 8.46447C19.5979 7.52678 18.3261 7 17 7M9 7H7C6.07144 7 5.16122 7.25857 4.37134 7.74675C3.58146 8.23492 2.94313 8.9334 2.52786 9.76393C2.1126 10.5945 1.93681 11.5242 2.0202 12.449C2.10359 13.3738 2.44286 14.2572 3 15M16 12H12M22 2L2 22" stroke="black" stroke-width="2" stroke-linecap="round" stroke-linejoin="round"/>
</svg>
